<?xml version="1.0" encoding="UTF-8" standalone="no"?>
<!DOCTYPE svg PUBLIC "-//W3C//DTD SVG 1.1//EN"
 "http://www.w3.org/Graphics/SVG/1.1/DTD/svg11.dtd">
<!-- Generated by graphviz version 2.40.1 (20161225.0304)
 -->
<!-- Title: G Pages: 1 -->
<svg width="1411pt" height="722pt"
 viewBox="0.00 0.00 1411.00 722.00" xmlns="http://www.w3.org/2000/svg" xmlns:xlink="http://www.w3.org/1999/xlink">
<g id="graph0" class="graph" transform="scale(1 1) rotate(0) translate(4 718)">
<title>G</title>
<polygon fill="#ffffff" stroke="transparent" points="-4,4 -4,-718 1407,-718 1407,4 -4,4"/>
<!-- A0 -->
<g id="node1" class="node">
<title>A0</title>
<polygon fill="none" stroke="#000000" points="0,-353 0,-385 360,-385 360,-353 0,-353"/>
<text text-anchor="start" x="151.1005" y="-366" font-family="Helvetica,sans-Serif" font-size="10.00" fill="#000000">Parqueadero</text>
<polygon fill="none" stroke="#000000" points="0,-309 0,-353 360,-353 360,-309 0,-309"/>
<text text-anchor="start" x="146.942" y="-334" font-family="Helvetica,sans-Serif" font-size="10.00" fill="#000000">&#45;nombre:String</text>
<text text-anchor="start" x="136.658" y="-322" font-family="Helvetica,sans-Serif" font-size="10.00" fill="#000000">&#45;numeroPuestos:int</text>
<polygon fill="none" stroke="#000000" points="0,-109 0,-309 360,-309 360,-109 0,-109"/>
<text text-anchor="start" x="73.1755" y="-290" font-family="Helvetica,sans-Serif" font-size="10.00" fill="#000000">+Constructor(nombre:String,numeroPuestos:Int)</text>
<text text-anchor="start" x="134.5795" y="-278" font-family="Helvetica,sans-Serif" font-size="10.00" fill="#000000">+getNombre():String</text>
<text text-anchor="start" x="124.2955" y="-266" font-family="Helvetica,sans-Serif" font-size="10.00" fill="#000000">+getNumeroPuestos():int</text>
<text text-anchor="start" x="107.3435" y="-254" font-family="Helvetica,sans-Serif" font-size="10.00" fill="#000000">+addVehiculo(Vehiculo:vehiculo)</text>
<text text-anchor="start" x="102.3435" y="-242" font-family="Helvetica,sans-Serif" font-size="10.00" fill="#000000">+crearPuestos(Int numeroPuestos)</text>
<text text-anchor="start" x="20.3755" y="-230" font-family="Helvetica,sans-Serif" font-size="10.00" fill="#000000">+addVehiculoPuestoDado(Vehiculo vehiculo, int posicionI, int posicionJ)</text>
<text text-anchor="start" x="9.542" y="-218" font-family="Helvetica,sans-Serif" font-size="10.00" fill="#000000">+removeVehiculoPuestoDado(posicionI:int, posicionJ:int, fechaSalida:Fecha)</text>
<text text-anchor="start" x="41.5025" y="-206" font-family="Helvetica,sans-Serif" font-size="10.00" fill="#000000">+verificarPuestoDisponible(int posicionI, int posicionJ):boolean</text>
<text text-anchor="start" x="18.1495" y="-194" font-family="Helvetica,sans-Serif" font-size="10.00" fill="#000000">+actualizarEstadoPuesto(posicionI:int,posicionJ:int,estadoNuevo:Estado)</text>
<text text-anchor="start" x="19.8335" y="-182" font-family="Helvetica,sans-Serif" font-size="10.00" fill="#000000">+identificarPropietarioPuestoDado(posicionI:int,posicionJ:int):Propietario</text>
<text text-anchor="start" x="97.906" y="-170" font-family="Helvetica,sans-Serif" font-size="10.00" fill="#000000">+getRegistros():Collection&lt;Registro&gt;</text>
<text text-anchor="start" x="103.4435" y="-158" font-family="Helvetica,sans-Serif" font-size="10.00" fill="#000000">+getPuestos():Hashtable&lt;Puesto&gt;</text>
<text text-anchor="start" x="96.786" y="-146" font-family="Helvetica,sans-Serif" font-size="10.00" fill="#000000">+getVehiculos():Collection&lt;Vehiculo&gt;</text>
<text text-anchor="start" x="91.227" y="-134" font-family="Helvetica,sans-Serif" font-size="10.00" fill="#000000">+generarReporteMensual(fecha):double</text>
<text text-anchor="start" x="68.4525" y="-122" font-family="Helvetica,sans-Serif" font-size="10.00" fill="#000000">+generarReporteDiario(fecha):Collection&lt;Double&gt;</text>
</g>
<!-- A1 -->
<g id="node2" class="node">
<title>A1</title>
<polygon fill="none" stroke="#000000" points="723,-355 723,-399 1025,-399 1025,-355 723,-355"/>
<text text-anchor="start" x="844.54" y="-380" font-family="Helvetica,sans-Serif" font-size="10.00" fill="#000000">&lt;&lt;abstract&gt;&gt;</text>
<text text-anchor="start" x="854.8285" y="-368" font-family="Helvetica,sans-Serif" font-size="10.00" fill="#000000">Vehiculo</text>
<polygon fill="none" stroke="#000000" points="723,-311 723,-355 1025,-355 1025,-311 723,-311"/>
<text text-anchor="start" x="845.941" y="-336" font-family="Helvetica,sans-Serif" font-size="10.00" fill="#000000">&#45;placa:String</text>
<text text-anchor="start" x="841.497" y="-324" font-family="Helvetica,sans-Serif" font-size="10.00" fill="#000000">&#45;modelo:String</text>
<polygon fill="none" stroke="#000000" points="723,-219 723,-311 1025,-311 1025,-219 723,-219"/>
<text text-anchor="start" x="732.7305" y="-292" font-family="Helvetica,sans-Serif" font-size="10.00" fill="#000000">+Constructor(placa:String,modelo:String,propietario:Propietario)</text>
<text text-anchor="start" x="833.8535" y="-280" font-family="Helvetica,sans-Serif" font-size="10.00" fill="#000000">+getPlaca():String</text>
<text text-anchor="start" x="829.9645" y="-268" font-family="Helvetica,sans-Serif" font-size="10.00" fill="#000000">+getModelo():String</text>
<text text-anchor="start" x="811.0745" y="-256" font-family="Helvetica,sans-Serif" font-size="10.00" fill="#000000">+getPropietario():Propietario</text>
<text text-anchor="start" x="812.458" y="-244" font-family="Helvetica,sans-Serif" font-size="10.00" fill="#000000">+abstract double getTarifa()</text>
<text text-anchor="start" x="791.0675" y="-232" font-family="Helvetica,sans-Serif" font-size="10.00" fill="#000000">+abstract void setTarifa(double tarifa)</text>
</g>
<!-- A0&#45;&gt;A1 -->
<g id="edge2" class="edge">
<title>A0&#45;&gt;A1</title>
<path fill="none" stroke="#000000" d="M372.3245,-285.0656C385.0451,-286.9309 397.6882,-288.6044 410,-290 510.1819,-301.3562 623.2109,-306.1514 712.629,-308.0858"/>
<polygon fill="none" stroke="#000000" points="371.9784,-285.0134 365.4483,-288.0724 360.1129,-283.2212 366.643,-280.1621 371.9784,-285.0134"/>
<polygon fill="#000000" stroke="#000000" points="722.8601,-308.2969 712.7694,-312.5895 717.8612,-308.1937 712.8622,-308.0905 712.8622,-308.0905 712.8622,-308.0905 717.8612,-308.1937 712.9551,-303.5915 722.8601,-308.2969 722.8601,-308.2969"/>
<text text-anchor="middle" x="704.5634" y="-313.3735" font-family="Helvetica,sans-Serif" font-size="10.00" fill="#000000">*</text>
<text text-anchor="middle" x="379.2981" y="-274.5706" font-family="Helvetica,sans-Serif" font-size="10.00" fill="#000000">1</text>
</g>
<!-- A2 -->
<g id="node3" class="node">
<title>A2</title>
<polygon fill="none" stroke="#000000" points="410.5,-249 410.5,-281 673.5,-281 673.5,-249 410.5,-249"/>
<text text-anchor="start" x="526.4375" y="-262" font-family="Helvetica,sans-Serif" font-size="10.00" fill="#000000">Puesto</text>
<polygon fill="none" stroke="#000000" points="410.5,-193 410.5,-249 673.5,-249 673.5,-193 410.5,-193"/>
<text text-anchor="start" x="513.661" y="-230" font-family="Helvetica,sans-Serif" font-size="10.00" fill="#000000">&#45;posicionI:Int</text>
<text text-anchor="start" x="512.5505" y="-218" font-family="Helvetica,sans-Serif" font-size="10.00" fill="#000000">&#45;posicionJ:Int</text>
<text text-anchor="start" x="508.376" y="-206" font-family="Helvetica,sans-Serif" font-size="10.00" fill="#000000">&#45;estado:Estado</text>
<polygon fill="none" stroke="#000000" points="410.5,-89 410.5,-193 673.5,-193 673.5,-89 410.5,-89"/>
<text text-anchor="start" x="420.163" y="-174" font-family="Helvetica,sans-Serif" font-size="10.00" fill="#000000">+Constructor(posicionI:Int,posicionJ:Int,Estado:Estado)</text>
<text text-anchor="start" x="501.5735" y="-162" font-family="Helvetica,sans-Serif" font-size="10.00" fill="#000000">+getPosicionI():Int</text>
<text text-anchor="start" x="500.463" y="-150" font-family="Helvetica,sans-Serif" font-size="10.00" fill="#000000">+getPosicionJ():Int</text>
<text text-anchor="start" x="497.678" y="-138" font-family="Helvetica,sans-Serif" font-size="10.00" fill="#000000">+getEstado()Estado</text>
<text text-anchor="start" x="500.877" y="-126" font-family="Helvetica,sans-Serif" font-size="10.00" fill="#000000">setEstado(Estado)</text>
<text text-anchor="start" x="489.0705" y="-114" font-family="Helvetica,sans-Serif" font-size="10.00" fill="#000000">+getVehiculo():Vehiculo</text>
<text text-anchor="start" x="490.7395" y="-102" font-family="Helvetica,sans-Serif" font-size="10.00" fill="#000000">+setVehiculo(Vehiculo)</text>
</g>
<!-- A0&#45;&gt;A2 -->
<g id="edge1" class="edge">
<title>A0&#45;&gt;A2</title>
<path fill="none" stroke="#000000" d="M372.3565,-214.0094C384.9987,-211.8412 397.5648,-209.686 409.8062,-207.5865"/>
<polygon fill="none" stroke="#000000" points="372.0478,-214.0623 366.8103,-219.019 360.2205,-216.0908 365.4579,-211.1341 372.0478,-214.0623"/>
<text text-anchor="middle" x="393.3696" y="-215.9813" font-family="Helvetica,sans-Serif" font-size="10.00" fill="#000000">*</text>
<text text-anchor="middle" x="376.657" y="-201.6961" font-family="Helvetica,sans-Serif" font-size="10.00" fill="#000000">1</text>
</g>
<!-- A4 -->
<g id="node5" class="node">
<title>A4</title>
<polygon fill="none" stroke="#000000" points="1075,-682 1075,-714 1285,-714 1285,-682 1075,-682"/>
<text text-anchor="start" x="1161.3885" y="-695" font-family="Helvetica,sans-Serif" font-size="10.00" fill="#000000">Registro</text>
<polygon fill="none" stroke="#000000" points="1075,-638 1075,-682 1285,-682 1285,-638 1075,-638"/>
<text text-anchor="start" x="1116.0965" y="-663" font-family="Helvetica,sans-Serif" font-size="10.00" fill="#000000">fechaIngreso:LocalDateTime</text>
<text text-anchor="start" x="1118.8765" y="-651" font-family="Helvetica,sans-Serif" font-size="10.00" fill="#000000">fechaSalida:LocalDateTime</text>
<polygon fill="none" stroke="#000000" points="1075,-510 1075,-638 1285,-638 1285,-510 1075,-510"/>
<text text-anchor="start" x="1084.8425" y="-619" font-family="Helvetica,sans-Serif" font-size="10.00" fill="#000000">+Constructor(fechaEntrada:LocalDateTime</text>
<text text-anchor="start" x="1118.8765" y="-607" font-family="Helvetica,sans-Serif" font-size="10.00" fill="#000000">fechaSalida:LocalDateTime</text>
<text text-anchor="start" x="1136.9375" y="-595" font-family="Helvetica,sans-Serif" font-size="10.00" fill="#000000">Vehiculo:vechiculo)</text>
<text text-anchor="start" x="1132.9145" y="-583" font-family="Helvetica,sans-Serif" font-size="10.00" fill="#000000">+calcularTiempo():Int</text>
<text text-anchor="start" x="1127.356" y="-571" font-family="Helvetica,sans-Serif" font-size="10.00" fill="#000000">+calcularTarifa():double</text>
<text text-anchor="start" x="1110.528" y="-559" font-family="Helvetica,sans-Serif" font-size="10.00" fill="#000000">getFechaEntrada:fechaEntrada</text>
<text text-anchor="start" x="1117.757" y="-547" font-family="Helvetica,sans-Serif" font-size="10.00" fill="#000000">getFechaSalida:fechaSalida</text>
<text text-anchor="start" x="1132.489" y="-535" font-family="Helvetica,sans-Serif" font-size="10.00" fill="#000000">getVehiculo:vehiculo)</text>
<text text-anchor="start" x="1125.4045" y="-523" font-family="Helvetica,sans-Serif" font-size="10.00" fill="#000000">+setFechaSalida(Fecha)</text>
</g>
<!-- A1&#45;&gt;A4 -->
<g id="edge8" class="edge">
<title>A1&#45;&gt;A4</title>
<path fill="none" stroke="#000000" d="M972.47,-406.5046C1005.789,-439.4969 1043.0775,-476.4199 1076.7565,-509.7687"/>
<polygon fill="#000000" stroke="#000000" points="964.9816,-399.0896 975.2537,-402.9282 968.5345,-402.6077 972.0874,-406.1258 972.0874,-406.1258 972.0874,-406.1258 968.5345,-402.6077 968.9212,-409.3234 964.9816,-399.0896 964.9816,-399.0896"/>
<text text-anchor="middle" x="1057.9292" y="-500.0209" font-family="Helvetica,sans-Serif" font-size="10.00" fill="#000000">*</text>
<text text-anchor="middle" x="983.8089" y="-402.8374" font-family="Helvetica,sans-Serif" font-size="10.00" fill="#000000">1</text>
</g>
<!-- A5 -->
<g id="node6" class="node">
<title>A5</title>
<polygon fill="none" stroke="#000000" points="1084,-460 1084,-492 1277,-492 1277,-460 1084,-460"/>
<text text-anchor="start" x="1169.387" y="-473" font-family="Helvetica,sans-Serif" font-size="10.00" fill="#000000">Moto</text>
<polygon fill="none" stroke="#000000" points="1084,-392 1084,-460 1277,-460 1277,-392 1084,-392"/>
<text text-anchor="start" x="1123.825" y="-441" font-family="Helvetica,sans-Serif" font-size="10.00" fill="#000000">&#45;velocidadMaxima:double</text>
<text text-anchor="start" x="1137.439" y="-429" font-family="Helvetica,sans-Serif" font-size="10.00" fill="#000000">&#45;tipoMoto:TipoMoto</text>
<text text-anchor="start" x="1121.882" y="-417" font-family="Helvetica,sans-Serif" font-size="10.00" fill="#000000">&#45;static tarifaClasica:double</text>
<text text-anchor="start" x="1122.438" y="-405" font-family="Helvetica,sans-Serif" font-size="10.00" fill="#000000">&#45;static tarifaHibrida:double</text>
<polygon fill="none" stroke="#000000" points="1084,-300 1084,-392 1277,-392 1277,-300 1084,-300"/>
<text text-anchor="start" x="1093.6805" y="-373" font-family="Helvetica,sans-Serif" font-size="10.00" fill="#000000">+Constructor(velocidadMaxima: double</text>
<text text-anchor="start" x="1134.66" y="-361" font-family="Helvetica,sans-Serif" font-size="10.00" fill="#000000"> tipoMoto: TipoMoto)</text>
<text text-anchor="start" x="1108.679" y="-349" font-family="Helvetica,sans-Serif" font-size="10.00" fill="#000000">+ getVelocidadMaxima():double </text>
<text text-anchor="start" x="1120.073" y="-337" font-family="Helvetica,sans-Serif" font-size="10.00" fill="#000000"> + getTipoMoto(): TipoMoto</text>
<text text-anchor="start" x="1136.74" y="-325" font-family="Helvetica,sans-Serif" font-size="10.00" fill="#000000"> +getTarifa():double</text>
<text text-anchor="start" x="1127.297" y="-313" font-family="Helvetica,sans-Serif" font-size="10.00" fill="#000000">+setTarifa(double tarifa)</text>
</g>
<!-- A1&#45;&gt;A5 -->
<g id="edge3" class="edge">
<title>A1&#45;&gt;A5</title>
<path fill="none" stroke="#000000" d="M1025.2071,-351.9902C1041.5418,-356.6344 1057.9038,-361.2864 1073.5481,-365.7343"/>
<polygon fill="none" stroke="#000000" points="1072.6136,-369.1072 1083.1895,-368.4755 1074.5279,-362.3741 1072.6136,-369.1072"/>
</g>
<!-- A7 -->
<g id="node8" class="node">
<title>A7</title>
<polygon fill="none" stroke="#000000" points="1117,-250 1117,-282 1243,-282 1243,-250 1117,-250"/>
<text text-anchor="start" x="1167.5025" y="-263" font-family="Helvetica,sans-Serif" font-size="10.00" fill="#000000">Carro</text>
<polygon fill="none" stroke="#000000" points="1117,-206 1117,-250 1243,-250 1243,-206 1117,-206"/>
<text text-anchor="start" x="1166.6675" y="-231" font-family="Helvetica,sans-Serif" font-size="10.00" fill="#000000">&#45;static</text>
<text text-anchor="start" x="1152.4915" y="-219" font-family="Helvetica,sans-Serif" font-size="10.00" fill="#000000">tarifa:double</text>
<polygon fill="none" stroke="#000000" points="1117,-162 1117,-206 1243,-206 1243,-162 1117,-162"/>
<text text-anchor="start" x="1137.6295" y="-187" font-family="Helvetica,sans-Serif" font-size="10.00" fill="#000000">+getTarifa():double</text>
<text text-anchor="start" x="1126.797" y="-175" font-family="Helvetica,sans-Serif" font-size="10.00" fill="#000000">+setTarifa(double tarifa)</text>
</g>
<!-- A1&#45;&gt;A7 -->
<g id="edge9" class="edge">
<title>A1&#45;&gt;A7</title>
<path fill="none" stroke="#000000" d="M1035.068,-263.2062C1064.1189,-254.9466 1092.7809,-246.7976 1116.8489,-239.9547"/>
<polygon fill="none" stroke="#000000" points="1033.8687,-259.9084 1025.2071,-266.0098 1035.7831,-266.6415 1033.8687,-259.9084"/>
</g>
<!-- A8 -->
<g id="node9" class="node">
<title>A8</title>
<polygon fill="none" stroke="#000000" points="1076,-112 1076,-144 1284,-144 1284,-112 1076,-112"/>
<text text-anchor="start" x="1155.8305" y="-125" font-family="Helvetica,sans-Serif" font-size="10.00" fill="#000000">Propietario</text>
<polygon fill="none" stroke="#000000" points="1076,-68 1076,-112 1284,-112 1284,-68 1076,-68"/>
<text text-anchor="start" x="1146.942" y="-93" font-family="Helvetica,sans-Serif" font-size="10.00" fill="#000000">&#45;nombre:String</text>
<text text-anchor="start" x="1149.167" y="-81" font-family="Helvetica,sans-Serif" font-size="10.00" fill="#000000">&#45;celular:String</text>
<polygon fill="none" stroke="#000000" points="1076,0 1076,-68 1284,-68 1284,0 1076,0"/>
<text text-anchor="start" x="1085.9645" y="-49" font-family="Helvetica,sans-Serif" font-size="10.00" fill="#000000">+Constructor(nombre:String,celular:String)</text>
<text text-anchor="start" x="1132.0795" y="-37" font-family="Helvetica,sans-Serif" font-size="10.00" fill="#000000">+getNombres():String</text>
<text text-anchor="start" x="1136.525" y="-13" font-family="Helvetica,sans-Serif" font-size="10.00" fill="#000000">+getCelular():String</text>
</g>
<!-- A1&#45;&gt;A8 -->
<g id="edge5" class="edge">
<title>A1&#45;&gt;A8</title>
<path fill="none" stroke="#000000" d="M1014.4426,-218.8776C1018.043,-215.9434 1021.5694,-212.9818 1025,-210 1050.4341,-187.8932 1050.4328,-176.0664 1075,-153 1075.7973,-152.2515 1076.6011,-151.5028 1077.4109,-150.7543"/>
<polygon fill="#000000" stroke="#000000" points="1084.8489,-144.029 1080.4495,-154.0737 1081.1402,-147.3824 1077.4314,-150.7358 1077.4314,-150.7358 1077.4314,-150.7358 1081.1402,-147.3824 1074.4134,-147.3979 1084.8489,-144.029 1084.8489,-144.029"/>
<text text-anchor="middle" x="1077.0727" y="-159.4553" font-family="Helvetica,sans-Serif" font-size="10.00" fill="#000000">1</text>
<text text-anchor="middle" x="1023.1274" y="-197.8617" font-family="Helvetica,sans-Serif" font-size="10.00" fill="#000000">1</text>
</g>
<!-- A2&#45;&gt;A1 -->
<g id="edge7" class="edge">
<title>A2&#45;&gt;A1</title>
<path fill="none" stroke="#000000" d="M673.3904,-234.1862C686.4484,-239.0559 699.8022,-244.036 713.1101,-248.9989"/>
<polygon fill="#000000" stroke="#000000" points="722.7873,-252.6079 711.8452,-253.3299 718.1025,-250.8607 713.4176,-249.1136 713.4176,-249.1136 713.4176,-249.1136 718.1025,-250.8607 714.9901,-244.8972 722.7873,-252.6079 722.7873,-252.6079"/>
<text text-anchor="middle" x="702.8503" y="-251.1937" font-family="Helvetica,sans-Serif" font-size="10.00" fill="#000000">1</text>
<text text-anchor="middle" x="693.3274" y="-229.6003" font-family="Helvetica,sans-Serif" font-size="10.00" fill="#000000">1</text>
</g>
<!-- A3 -->
<g id="node4" class="node">
<title>A3</title>
<polygon fill="none" stroke="#000000" points="839,-157 839,-201 909,-201 909,-157 839,-157"/>
<text text-anchor="start" x="849.819" y="-182" font-family="Helvetica,sans-Serif" font-size="10.00" fill="#000000">&lt;&lt;enum&gt;&gt;</text>
<text text-anchor="start" x="858.4375" y="-170" font-family="Helvetica,sans-Serif" font-size="10.00" fill="#000000">Estado</text>
<polygon fill="none" stroke="#000000" points="839,-113 839,-157 909,-157 909,-113 839,-113"/>
<text text-anchor="start" x="859.5525" y="-138" font-family="Helvetica,sans-Serif" font-size="10.00" fill="#000000">LIBRE</text>
<text text-anchor="start" x="848.7235" y="-126" font-family="Helvetica,sans-Serif" font-size="10.00" fill="#000000">OCUPADO</text>
</g>
<!-- A2&#45;&gt;A3 -->
<g id="edge6" class="edge">
<title>A2&#45;&gt;A3</title>
<path fill="none" stroke="#000000" d="M673.3904,-173.8934C728.3153,-169.2682 788.4721,-164.2023 828.4428,-160.8364"/>
<polygon fill="#000000" stroke="#000000" points="838.6566,-159.9763 829.0695,-165.2996 833.6742,-160.3959 828.6918,-160.8155 828.6918,-160.8155 828.6918,-160.8155 833.6742,-160.3959 828.3142,-156.3314 838.6566,-159.9763 838.6566,-159.9763"/>
<text text-anchor="middle" x="821.3036" y="-166.9199" font-family="Helvetica,sans-Serif" font-size="10.00" fill="#000000">1</text>
<text text-anchor="middle" x="690.7433" y="-160.9499" font-family="Helvetica,sans-Serif" font-size="10.00" fill="#000000">1</text>
</g>
<!-- A6 -->
<g id="node7" class="node">
<title>A6</title>
<polygon fill="none" stroke="#000000" points="1335,-396 1335,-440 1403,-440 1403,-396 1335,-396"/>
<text text-anchor="start" x="1344.819" y="-421" font-family="Helvetica,sans-Serif" font-size="10.00" fill="#000000">&lt;&lt;enum&gt;&gt;</text>
<text text-anchor="start" x="1348.164" y="-409" font-family="Helvetica,sans-Serif" font-size="10.00" fill="#000000">TipoMoto</text>
<polygon fill="none" stroke="#000000" points="1335,-352 1335,-396 1403,-396 1403,-352 1335,-352"/>
<text text-anchor="start" x="1347.6085" y="-377" font-family="Helvetica,sans-Serif" font-size="10.00" fill="#000000">CLASICA</text>
<text text-anchor="start" x="1348.7235" y="-365" font-family="Helvetica,sans-Serif" font-size="10.00" fill="#000000">HIBRIDA</text>
</g>
<!-- A5&#45;&gt;A6 -->
<g id="edge4" class="edge">
<title>A5&#45;&gt;A6</title>
<path fill="none" stroke="#000000" d="M1276.7147,-396C1293.5236,-396 1310.2392,-396 1324.7324,-396"/>
<polygon fill="#000000" stroke="#000000" points="1334.8625,-396 1324.8625,-400.5001 1329.8625,-396 1324.8625,-396.0001 1324.8625,-396.0001 1324.8625,-396.0001 1329.8625,-396 1324.8624,-391.5001 1334.8625,-396 1334.8625,-396"/>
<text text-anchor="middle" x="1316.7363" y="-401.4524" font-family="Helvetica,sans-Serif" font-size="10.00" fill="#000000">1</text>
<text text-anchor="middle" x="1294.8408" y="-384.5476" font-family="Helvetica,sans-Serif" font-size="10.00" fill="#000000">1</text>
</g>
</g>
</svg>
