<?xml version="1.0" encoding="UTF-8" standalone="no"?>
<!DOCTYPE svg PUBLIC "-//W3C//DTD SVG 1.1//EN"
 "http://www.w3.org/Graphics/SVG/1.1/DTD/svg11.dtd">
<!-- Generated by graphviz version 2.40.1 (20161225.0304)
 -->
<!-- Title: G Pages: 1 -->
<svg width="714pt" height="366pt"
 viewBox="0.00 0.00 713.67 366.00" xmlns="http://www.w3.org/2000/svg" xmlns:xlink="http://www.w3.org/1999/xlink">
<g id="graph0" class="graph" transform="scale(1 1) rotate(0) translate(4 362)">
<title>G</title>
<polygon fill="#ffffff" stroke="transparent" points="-4,4 -4,-362 709.668,-362 709.668,4 -4,4"/>
<!-- A0 -->
<g id="node1" class="node">
<title>A0</title>
<polygon fill="none" stroke="#000000" points="0,-136 0,-168 106,-168 106,-136 0,-136"/>
<text text-anchor="start" x="24.1005" y="-149" font-family="Helvetica,sans-Serif" font-size="10.00" fill="#000000">Parqueadero</text>
<polygon fill="none" stroke="#000000" points="0,-92 0,-136 106,-136 106,-92 0,-92"/>
<text text-anchor="start" x="19.942" y="-117" font-family="Helvetica,sans-Serif" font-size="10.00" fill="#000000">&#45;nombre:String</text>
<text text-anchor="start" x="9.658" y="-105" font-family="Helvetica,sans-Serif" font-size="10.00" fill="#000000">&#45;numeroPuestos:int</text>
</g>
<!-- A1 -->
<g id="node2" class="node">
<title>A1</title>
<polygon fill="none" stroke="#000000" points="284.5,-216 284.5,-260 369.5,-260 369.5,-216 284.5,-216"/>
<text text-anchor="start" x="297.54" y="-241" font-family="Helvetica,sans-Serif" font-size="10.00" fill="#000000">&lt;&lt;abstract&gt;&gt;</text>
<text text-anchor="start" x="307.8285" y="-229" font-family="Helvetica,sans-Serif" font-size="10.00" fill="#000000">Vehiculo</text>
<polygon fill="none" stroke="#000000" points="284.5,-172 284.5,-216 369.5,-216 369.5,-172 284.5,-172"/>
<text text-anchor="start" x="298.941" y="-197" font-family="Helvetica,sans-Serif" font-size="10.00" fill="#000000">&#45;placa:String</text>
<text text-anchor="start" x="294.497" y="-185" font-family="Helvetica,sans-Serif" font-size="10.00" fill="#000000">&#45;modelo:String</text>
</g>
<!-- A0&#45;&gt;A1 -->
<g id="edge2" class="edge">
<title>A0&#45;&gt;A1</title>
<path fill="none" stroke="#000000" d="M117.1132,-161.6746C129.8139,-167.2568 143.1845,-172.6607 156,-177 194.576,-190.0617 239.532,-200.1421 273.5937,-206.7798"/>
<polygon fill="none" stroke="#000000" points="117.099,-161.6683 109.9861,-162.8547 106.1552,-156.7454 113.2681,-155.5589 117.099,-161.6683"/>
<polygon fill="#000000" stroke="#000000" points="283.7957,-208.7287 273.1289,-211.2723 278.8845,-207.7904 273.9733,-206.8522 273.9733,-206.8522 273.9733,-206.8522 278.8845,-207.7904 274.8177,-202.4321 283.7957,-208.7287 283.7957,-208.7287"/>
<text text-anchor="middle" x="264.4055" y="-210.6297" font-family="Helvetica,sans-Serif" font-size="10.00" fill="#000000">*</text>
<text text-anchor="middle" x="126.1534" y="-153.473" font-family="Helvetica,sans-Serif" font-size="10.00" fill="#000000">1</text>
</g>
<!-- A2 -->
<g id="node3" class="node">
<title>A2</title>
<polygon fill="none" stroke="#000000" points="156,-136 156,-168 234,-168 234,-136 156,-136"/>
<text text-anchor="start" x="179.4375" y="-149" font-family="Helvetica,sans-Serif" font-size="10.00" fill="#000000">Puesto</text>
<polygon fill="none" stroke="#000000" points="156,-92 156,-136 234,-136 234,-92 156,-92"/>
<text text-anchor="start" x="166.661" y="-117" font-family="Helvetica,sans-Serif" font-size="10.00" fill="#000000">&#45;posicionI:Int</text>
<text text-anchor="start" x="165.5505" y="-105" font-family="Helvetica,sans-Serif" font-size="10.00" fill="#000000">&#45;posicionJ:Int</text>
</g>
<!-- A0&#45;&gt;A2 -->
<g id="edge1" class="edge">
<title>A0&#45;&gt;A2</title>
<path fill="none" stroke="#000000" d="M118.3551,-130C131.084,-130 144.0564,-130 155.6219,-130"/>
<polygon fill="none" stroke="#000000" points="118.2796,-130.0001 112.2795,-134 106.2796,-130 112.2796,-126 118.2796,-130.0001"/>
<text text-anchor="middle" x="137.4957" y="-135.4524" font-family="Helvetica,sans-Serif" font-size="10.00" fill="#000000">*</text>
<text text-anchor="middle" x="124.4057" y="-118.5476" font-family="Helvetica,sans-Serif" font-size="10.00" fill="#000000">1</text>
</g>
<!-- A4 -->
<g id="node5" class="node">
<title>A4</title>
<polygon fill="none" stroke="#000000" points="419.5,-44 419.5,-76 566.5,-76 566.5,-44 419.5,-44"/>
<text text-anchor="start" x="474.3885" y="-57" font-family="Helvetica,sans-Serif" font-size="10.00" fill="#000000">Registro</text>
<polygon fill="none" stroke="#000000" points="419.5,0 419.5,-44 566.5,-44 566.5,0 419.5,0"/>
<text text-anchor="start" x="429.0965" y="-25" font-family="Helvetica,sans-Serif" font-size="10.00" fill="#000000">fechaIngreso:LocalDateTime</text>
<text text-anchor="start" x="431.8765" y="-13" font-family="Helvetica,sans-Serif" font-size="10.00" fill="#000000">fechaSalida:LocalDateTime</text>
</g>
<!-- A0&#45;&gt;A4 -->
<g id="edge3" class="edge">
<title>A0&#45;&gt;A4</title>
<path fill="none" stroke="#000000" d="M117.0296,-98.0734C129.7377,-92.5134 143.1324,-87.1821 156,-83 239.4787,-55.8683 339.7107,-45.0748 408.9528,-40.7923"/>
<polygon fill="none" stroke="#000000" points="117.0161,-98.0794 113.1812,-104.1863 106.0692,-102.9953 109.904,-96.8884 117.0161,-98.0794"/>
<polygon fill="#000000" stroke="#000000" points="418.9382,-40.2066 409.219,-45.2845 413.9468,-40.4994 408.9554,-40.7923 408.9554,-40.7923 408.9554,-40.7923 413.9468,-40.4994 408.6918,-36.3 418.9382,-40.2066 418.9382,-40.2066"/>
<text text-anchor="middle" x="401.3382" y="-46.7059" font-family="Helvetica,sans-Serif" font-size="10.00" fill="#000000">*</text>
<text text-anchor="middle" x="119.1421" y="-84.8593" font-family="Helvetica,sans-Serif" font-size="10.00" fill="#000000">1</text>
</g>
<!-- A1&#45;&gt;A4 -->
<g id="edge10" class="edge">
<title>A1&#45;&gt;A4</title>
<path fill="none" stroke="#000000" d="M368.6118,-163.5394C368.7416,-163.3594 368.871,-163.1796 369,-163 393.025,-129.5574 389.8667,-114.1008 419,-85 422.1076,-81.8958 425.4544,-78.8918 428.9462,-76.0051"/>
<polygon fill="#000000" stroke="#000000" points="362.5591,-171.7317 364.8821,-161.0147 365.5303,-167.7103 368.5014,-163.6888 368.5014,-163.6888 368.5014,-163.6888 365.5303,-167.7103 372.1208,-166.3628 362.5591,-171.7317 362.5591,-171.7317"/>
<text text-anchor="middle" x="420.4351" y="-91.1037" font-family="Helvetica,sans-Serif" font-size="10.00" fill="#000000">*</text>
<text text-anchor="middle" x="366.532" y="-149.1303" font-family="Helvetica,sans-Serif" font-size="10.00" fill="#000000">1</text>
</g>
<!-- A5 -->
<g id="node6" class="node">
<title>A5</title>
<polygon fill="none" stroke="#000000" points="426.5,-326 426.5,-358 559.5,-358 559.5,-326 426.5,-326"/>
<text text-anchor="start" x="481.887" y="-339" font-family="Helvetica,sans-Serif" font-size="10.00" fill="#000000">Moto</text>
<polygon fill="none" stroke="#000000" points="426.5,-270 426.5,-326 559.5,-326 559.5,-270 426.5,-270"/>
<text text-anchor="start" x="436.325" y="-307" font-family="Helvetica,sans-Serif" font-size="10.00" fill="#000000">&#45;velocidadMaxima:double</text>
<text text-anchor="start" x="449.104" y="-295" font-family="Helvetica,sans-Serif" font-size="10.00" fill="#000000">tarifaClasica:double</text>
<text text-anchor="start" x="448.2705" y="-283" font-family="Helvetica,sans-Serif" font-size="10.00" fill="#000000"> tarifaHibrida:double</text>
</g>
<!-- A1&#45;&gt;A5 -->
<g id="edge4" class="edge">
<title>A1&#45;&gt;A5</title>
<path fill="none" stroke="#000000" d="M377.9394,-246.3678C393.0527,-255.2902 409.8065,-265.1809 425.7307,-274.582"/>
<polygon fill="none" stroke="#000000" points="379.6398,-243.3073 369.2491,-241.2374 376.0811,-249.3353 379.6398,-243.3073"/>
</g>
<!-- A7 -->
<g id="node8" class="node">
<title>A7</title>
<polygon fill="none" stroke="#000000" points="455.5,-220 455.5,-252 530.5,-252 530.5,-220 455.5,-220"/>
<text text-anchor="start" x="480.5025" y="-233" font-family="Helvetica,sans-Serif" font-size="10.00" fill="#000000">Carro</text>
<polygon fill="none" stroke="#000000" points="455.5,-188 455.5,-220 530.5,-220 530.5,-188 455.5,-188"/>
<text text-anchor="start" x="465.4915" y="-201" font-family="Helvetica,sans-Serif" font-size="10.00" fill="#000000">tarifa:double</text>
</g>
<!-- A1&#45;&gt;A7 -->
<g id="edge11" class="edge">
<title>A1&#45;&gt;A7</title>
<path fill="none" stroke="#000000" d="M379.5004,-217.2771C404.0695,-217.8691 432.6909,-218.5588 454.9811,-219.0959"/>
<polygon fill="none" stroke="#000000" points="379.3306,-213.7721 369.2491,-217.0301 379.1619,-220.7701 379.3306,-213.7721"/>
</g>
<!-- A8 -->
<g id="node9" class="node">
<title>A8</title>
<polygon fill="none" stroke="#000000" points="449.5,-138 449.5,-170 535.5,-170 535.5,-138 449.5,-138"/>
<text text-anchor="start" x="468.3305" y="-151" font-family="Helvetica,sans-Serif" font-size="10.00" fill="#000000">Propietario</text>
<polygon fill="none" stroke="#000000" points="449.5,-94 449.5,-138 535.5,-138 535.5,-94 449.5,-94"/>
<text text-anchor="start" x="459.442" y="-119" font-family="Helvetica,sans-Serif" font-size="10.00" fill="#000000">&#45;nombre:String</text>
<text text-anchor="start" x="460.2775" y="-107" font-family="Helvetica,sans-Serif" font-size="10.00" fill="#000000">&#45;celular: String</text>
</g>
<!-- A1&#45;&gt;A8 -->
<g id="edge6" class="edge">
<title>A1&#45;&gt;A8</title>
<path fill="none" stroke="#000000" d="M369.2491,-194.3679C390.8635,-183.4305 417.2829,-170.0617 440.1101,-158.5106"/>
<polygon fill="#000000" stroke="#000000" points="449.3188,-153.8507 442.4279,-162.3811 444.8575,-156.1083 440.3961,-158.3659 440.3961,-158.3659 440.3961,-158.3659 444.8575,-156.1083 438.3643,-154.3507 449.3188,-153.8507 449.3188,-153.8507"/>
<text text-anchor="middle" x="436.9617" y="-166.5766" font-family="Helvetica,sans-Serif" font-size="10.00" fill="#000000">1</text>
<text text-anchor="middle" x="381.6062" y="-175.642" font-family="Helvetica,sans-Serif" font-size="10.00" fill="#000000">1</text>
</g>
<!-- A2&#45;&gt;A1 -->
<g id="edge8" class="edge">
<title>A2&#45;&gt;A1</title>
<path fill="none" stroke="#000000" d="M234.0983,-155.57C247.0137,-164.0165 261.5805,-173.5432 275.2646,-182.4924"/>
<polygon fill="#000000" stroke="#000000" points="283.6481,-187.9752 272.8159,-186.2679 279.4635,-185.2385 275.2789,-182.5018 275.2789,-182.5018 275.2789,-182.5018 279.4635,-185.2385 277.742,-178.7357 283.6481,-187.9752 283.6481,-187.9752"/>
<text text-anchor="middle" x="263.8518" y="-182.128" font-family="Helvetica,sans-Serif" font-size="10.00" fill="#000000">1</text>
<text text-anchor="middle" x="253.8946" y="-155.4172" font-family="Helvetica,sans-Serif" font-size="10.00" fill="#000000">1</text>
</g>
<!-- A3 -->
<g id="node4" class="node">
<title>A3</title>
<polygon fill="none" stroke="#000000" points="291.5,-110 291.5,-154 361.5,-154 361.5,-110 291.5,-110"/>
<text text-anchor="start" x="302.319" y="-135" font-family="Helvetica,sans-Serif" font-size="10.00" fill="#000000">&lt;&lt;enum&gt;&gt;</text>
<text text-anchor="start" x="310.9375" y="-123" font-family="Helvetica,sans-Serif" font-size="10.00" fill="#000000">Estado</text>
<polygon fill="none" stroke="#000000" points="291.5,-66 291.5,-110 361.5,-110 361.5,-66 291.5,-66"/>
<text text-anchor="start" x="312.0525" y="-91" font-family="Helvetica,sans-Serif" font-size="10.00" fill="#000000">LIBRE</text>
<text text-anchor="start" x="301.2235" y="-79" font-family="Helvetica,sans-Serif" font-size="10.00" fill="#000000">OCUPADO</text>
</g>
<!-- A2&#45;&gt;A3 -->
<g id="edge7" class="edge">
<title>A2&#45;&gt;A3</title>
<path fill="none" stroke="#000000" d="M234.0983,-124.0535C248.8614,-121.8082 265.7824,-119.2346 281.0761,-116.9086"/>
<polygon fill="#000000" stroke="#000000" points="291.3576,-115.3449 282.148,-121.2974 286.4145,-116.0967 281.4713,-116.8486 281.4713,-116.8486 281.4713,-116.8486 286.4145,-116.0967 280.7946,-112.3997 291.3576,-115.3449 291.3576,-115.3449"/>
<text text-anchor="middle" x="274.7084" y="-123.4266" font-family="Helvetica,sans-Serif" font-size="10.00" fill="#000000">1</text>
<text text-anchor="middle" x="250.7475" y="-109.9717" font-family="Helvetica,sans-Serif" font-size="10.00" fill="#000000">1</text>
</g>
<!-- A6 -->
<g id="node7" class="node">
<title>A6</title>
<polygon fill="none" stroke="#000000" points="626.834,-314 626.834,-358 694.834,-358 694.834,-314 626.834,-314"/>
<text text-anchor="start" x="636.653" y="-339" font-family="Helvetica,sans-Serif" font-size="10.00" fill="#000000">&lt;&lt;enum&gt;&gt;</text>
<text text-anchor="start" x="639.998" y="-327" font-family="Helvetica,sans-Serif" font-size="10.00" fill="#000000">TipoMoto</text>
<polygon fill="none" stroke="#000000" points="626.834,-270 626.834,-314 694.834,-314 694.834,-270 626.834,-270"/>
<text text-anchor="start" x="639.4425" y="-295" font-family="Helvetica,sans-Serif" font-size="10.00" fill="#000000">CLASICA</text>
<text text-anchor="start" x="640.5575" y="-283" font-family="Helvetica,sans-Serif" font-size="10.00" fill="#000000">HIBRIDA</text>
</g>
<!-- A5&#45;&gt;A6 -->
<g id="edge5" class="edge">
<title>A5&#45;&gt;A6</title>
<path fill="none" stroke="#000000" d="M559.0301,-314C578.2082,-314 598.6655,-314 616.1731,-314"/>
<polygon fill="#000000" stroke="#000000" points="626.655,-314 616.6551,-318.5001 621.655,-314 616.655,-314.0001 616.655,-314.0001 616.655,-314.0001 621.655,-314 616.655,-309.5001 626.655,-314 626.655,-314"/>
<text text-anchor="middle" x="608.5289" y="-319.4524" font-family="Helvetica,sans-Serif" font-size="10.00" fill="#000000">1</text>
<text text-anchor="middle" x="577.1562" y="-302.5476" font-family="Helvetica,sans-Serif" font-size="10.00" fill="#000000">1</text>
</g>
<!-- A9 -->
<g id="node10" class="node">
<title>A9</title>
<polygon fill="none" stroke="#000000" points="705.5026,-150 616.1654,-150 616.1654,-114 705.5026,-114 705.5026,-150"/>
<text text-anchor="middle" x="660.834" y="-129" font-family="Helvetica,sans-Serif" font-size="10.00" fill="#000000">Administrador</text>
</g>
<!-- A8&#45;&gt;A9 -->
<g id="edge9" class="edge">
<title>A8&#45;&gt;A9</title>
<path fill="none" stroke="#000000" d="M545.9677,-132C568.5742,-132 594.6046,-132 616.1638,-132"/>
<polygon fill="none" stroke="#000000" points="545.8502,-128.5001 535.8502,-132 545.8502,-135.5001 545.8502,-128.5001"/>
</g>
</g>
</svg>
